# xmcd CD database file
#
# Track frame offsets:
#	150
#	14525
#	53005
#	67517
#	94987
#	112957
#	136920
#	160990
#	198257
#	225715
#	266900
#
# Disc length: 4557 seconds
#
# Revision: 0
# Processed by: cddbd v1.4PL0 Copyright (c) Steve Scherf et al.
# Submitted via: CD2WAV32(EN) R3.19
#
DISCID=8d11cb0b
DTITLE=Sarah BRIGHTMAN - A Whiter shade of Pale
DYEAR=1900
DGENRE=
TTITLE0=Radio edit
TTITLE1=ATB remix
TTITLE2=Ecstasy mix
TTITLE3=Paralyzer remix
TTITLE4=ATB radio edit
TTITLE5=Radio edit
TTITLE6=Pech remix
TTITLE7=Knock Out mix
TTITLE8=Damage Control mix
TTITLE9=Tom Lord-Alge mix
TTITLE10=DATA
EXTD=
EXTT0=
EXTT1=
EXTT2=
EXTT3=
EXTT4=
EXTT5=
EXTT6=
EXTT7=
EXTT8=
EXTT9=
EXTT10=
PLAYORDER=
